<svg xmlns="http://www.w3.org/2000/svg" xmlns:xlink="http://www.w3.org/1999/xlink" width="150" zoomAndPan="magnify" viewBox="0 0 112.5 37.5" height="50" preserveAspectRatio="xMidYMid meet" version="1.0"><defs><g/><clipPath id="aeaf7b8010"><path d="M 21.484375 1.445312 L 90.316406 1.445312 L 90.316406 35.492188 L 21.484375 35.492188 Z M 21.484375 1.445312 " clip-rule="nonzero"/></clipPath></defs><path fill="#e98ead" d="M 88.15625 18.496094 C 88.15625 18.980469 88.105469 19.460938 88.003906 19.941406 C 87.898438 20.421875 87.746094 20.898438 87.539062 21.371094 C 87.332031 21.84375 87.078125 22.3125 86.773438 22.773438 C 86.464844 23.234375 86.113281 23.691406 85.710938 24.136719 C 85.304688 24.582031 84.855469 25.015625 84.359375 25.441406 C 83.863281 25.867188 83.324219 26.28125 82.738281 26.683594 C 82.152344 27.082031 81.523438 27.46875 80.855469 27.84375 C 80.1875 28.214844 79.480469 28.574219 78.738281 28.914062 C 77.992188 29.257812 77.214844 29.578125 76.398438 29.886719 C 75.585938 30.191406 74.738281 30.480469 73.863281 30.746094 C 72.988281 31.015625 72.085938 31.261719 71.15625 31.488281 C 70.226562 31.71875 69.277344 31.921875 68.304688 32.109375 C 67.332031 32.292969 66.339844 32.457031 65.332031 32.59375 C 64.324219 32.734375 63.304688 32.851562 62.269531 32.945312 C 61.238281 33.039062 60.195312 33.113281 59.148438 33.160156 C 58.101562 33.207031 57.050781 33.230469 55.996094 33.230469 C 54.941406 33.230469 53.890625 33.207031 52.84375 33.160156 C 51.796875 33.113281 50.753906 33.039062 49.722656 32.945312 C 48.6875 32.851562 47.667969 32.734375 46.660156 32.59375 C 45.652344 32.457031 44.664062 32.292969 43.6875 32.109375 C 42.714844 31.921875 41.765625 31.71875 40.835938 31.488281 C 39.90625 31.261719 39.003906 31.015625 38.128906 30.746094 C 37.253906 30.480469 36.40625 30.191406 35.59375 29.886719 C 34.78125 29.578125 34 29.257812 33.253906 28.914062 C 32.511719 28.574219 31.804688 28.214844 31.136719 27.84375 C 30.46875 27.46875 29.839844 27.082031 29.253906 26.683594 C 28.671875 26.28125 28.128906 25.867188 27.632812 25.441406 C 27.136719 25.015625 26.6875 24.582031 26.285156 24.136719 C 25.878906 23.691406 25.527344 23.234375 25.21875 22.773438 C 24.914062 22.3125 24.660156 21.84375 24.453125 21.371094 C 24.25 20.898438 24.09375 20.421875 23.992188 19.941406 C 23.886719 19.460938 23.835938 18.980469 23.835938 18.496094 C 23.835938 18.015625 23.886719 17.535156 23.992188 17.054688 C 24.09375 16.574219 24.25 16.097656 24.453125 15.625 C 24.660156 15.152344 24.914062 14.683594 25.21875 14.222656 C 25.527344 13.757812 25.878906 13.304688 26.285156 12.859375 C 26.6875 12.414062 27.136719 11.980469 27.632812 11.554688 C 28.128906 11.128906 28.671875 10.714844 29.253906 10.3125 C 29.839844 9.910156 30.46875 9.523438 31.136719 9.152344 C 31.804688 8.777344 32.511719 8.421875 33.253906 8.082031 C 34 7.738281 34.78125 7.414062 35.59375 7.109375 C 36.40625 6.804688 37.253906 6.515625 38.128906 6.25 C 39.003906 5.980469 39.90625 5.734375 40.835938 5.503906 C 41.765625 5.277344 42.714844 5.070312 43.6875 4.886719 C 44.664062 4.703125 45.652344 4.539062 46.660156 4.398438 C 47.667969 4.261719 48.6875 4.144531 49.722656 4.046875 C 50.753906 3.953125 51.796875 3.882812 52.84375 3.835938 C 53.890625 3.789062 54.941406 3.765625 55.996094 3.765625 C 57.050781 3.765625 58.101562 3.789062 59.148438 3.835938 C 60.195312 3.882812 61.238281 3.953125 62.269531 4.046875 C 63.304688 4.144531 64.324219 4.261719 65.332031 4.398438 C 66.339844 4.539062 67.332031 4.703125 68.304688 4.886719 C 69.277344 5.070312 70.226562 5.277344 71.15625 5.503906 C 72.085938 5.734375 72.988281 5.980469 73.863281 6.25 C 74.738281 6.515625 75.585938 6.804688 76.398438 7.109375 C 77.214844 7.414062 77.992188 7.738281 78.738281 8.082031 C 79.480469 8.421875 80.1875 8.777344 80.855469 9.152344 C 81.523438 9.523438 82.152344 9.910156 82.738281 10.3125 C 83.324219 10.714844 83.863281 11.128906 84.359375 11.554688 C 84.855469 11.980469 85.304688 12.414062 85.710938 12.859375 C 86.113281 13.304688 86.464844 13.757812 86.773438 14.222656 C 87.078125 14.683594 87.332031 15.152344 87.539062 15.625 C 87.746094 16.097656 87.898438 16.574219 88.003906 17.054688 C 88.105469 17.535156 88.15625 18.015625 88.15625 18.496094 Z M 88.15625 18.496094 " fill-opacity="1" fill-rule="nonzero"/><g clip-path="url(#aeaf7b8010)"><path fill="#e98ead" d="M 55.996094 1.449219 C 36.929688 1.449219 21.484375 9.082031 21.484375 18.496094 C 21.484375 27.917969 36.929688 35.546875 55.996094 35.546875 C 75.0625 35.546875 90.515625 27.914062 90.515625 18.496094 C 90.507812 9.082031 75.054688 1.449219 55.996094 1.449219 Z M 55.996094 33.832031 C 38.226562 33.832031 23.21875 26.808594 23.21875 18.496094 C 23.21875 10.183594 38.226562 3.164062 55.996094 3.164062 C 73.765625 3.164062 88.773438 10.183594 88.773438 18.496094 C 88.773438 26.808594 73.757812 33.832031 55.996094 33.832031 Z M 55.996094 33.832031 " fill-opacity="1" fill-rule="nonzero"/></g><path fill="#ffffff" d="M 55.996094 3.164062 C 38.226562 3.164062 23.21875 10.183594 23.21875 18.496094 C 23.21875 26.808594 38.226562 33.832031 55.996094 33.832031 C 73.765625 33.832031 88.773438 26.808594 88.773438 18.496094 C 88.773438 10.183594 73.757812 3.164062 55.996094 3.164062 Z M 55.996094 33.230469 C 38.5625 33.230469 23.835938 26.484375 23.835938 18.503906 C 23.835938 10.519531 38.5625 3.773438 55.996094 3.773438 C 73.433594 3.773438 88.164062 10.519531 88.164062 18.503906 C 88.15625 26.484375 73.433594 33.230469 55.996094 33.230469 Z M 55.996094 33.230469 " fill-opacity="1" fill-rule="nonzero"/><g fill="#faf3f3" fill-opacity="1"><g transform="translate(44.873689, 23.198508)"><g><path d="M 4.921875 -0.71875 C 4.921875 -0.664062 4.925781 -0.601562 4.9375 -0.53125 C 4.957031 -0.46875 4.976562 -0.40625 5 -0.34375 C 5.03125 -0.28125 5.066406 -0.222656 5.109375 -0.171875 C 5.160156 -0.128906 5.210938 -0.109375 5.265625 -0.109375 L 5.265625 0 L 4.1875 0 L 4.1875 -0.609375 C 4.070312 -0.453125 3.90625 -0.296875 3.6875 -0.140625 C 3.476562 0.015625 3.203125 0.09375 2.859375 0.09375 C 2.429688 0.09375 2.085938 0.0195312 1.828125 -0.125 C 1.578125 -0.269531 1.382812 -0.457031 1.25 -0.6875 C 1.113281 -0.914062 1.023438 -1.164062 0.984375 -1.4375 C 0.953125 -1.71875 0.9375 -1.976562 0.9375 -2.21875 L 0.9375 -3.8125 C 0.9375 -3.875 0.929688 -3.9375 0.921875 -4 C 0.921875 -4.0625 0.90625 -4.117188 0.875 -4.171875 C 0.851562 -4.222656 0.816406 -4.265625 0.765625 -4.296875 C 0.710938 -4.335938 0.640625 -4.359375 0.546875 -4.359375 L 0.546875 -4.453125 L 1.671875 -4.8125 L 1.671875 -1.96875 C 1.671875 -1.394531 1.789062 -0.972656 2.03125 -0.703125 C 2.28125 -0.441406 2.585938 -0.3125 2.953125 -0.3125 C 3.140625 -0.3125 3.3125 -0.351562 3.46875 -0.4375 C 3.625 -0.519531 3.753906 -0.617188 3.859375 -0.734375 C 3.960938 -0.859375 4.039062 -0.984375 4.09375 -1.109375 C 4.15625 -1.242188 4.1875 -1.351562 4.1875 -1.4375 L 4.1875 -3.8125 C 4.1875 -3.875 4.179688 -3.9375 4.171875 -4 C 4.171875 -4.0625 4.15625 -4.117188 4.125 -4.171875 C 4.101562 -4.222656 4.066406 -4.265625 4.015625 -4.296875 C 3.960938 -4.335938 3.890625 -4.359375 3.796875 -4.359375 L 3.796875 -4.453125 L 4.921875 -4.8125 Z M 4.921875 -0.71875 "/></g></g></g><g fill="#faf3f3" fill-opacity="1"><g transform="translate(50.067444, 23.198508)"><g><path d="M 7.65625 -0.71875 C 7.65625 -0.664062 7.660156 -0.601562 7.671875 -0.53125 C 7.691406 -0.457031 7.710938 -0.390625 7.734375 -0.328125 C 7.765625 -0.273438 7.800781 -0.222656 7.84375 -0.171875 C 7.882812 -0.128906 7.9375 -0.109375 8 -0.109375 L 8 0 L 6.546875 0 L 6.546875 -0.109375 C 6.609375 -0.109375 6.660156 -0.128906 6.703125 -0.171875 C 6.742188 -0.222656 6.78125 -0.273438 6.8125 -0.328125 C 6.851562 -0.390625 6.878906 -0.457031 6.890625 -0.53125 C 6.910156 -0.601562 6.921875 -0.664062 6.921875 -0.71875 L 6.921875 -3.140625 C 6.921875 -3.304688 6.894531 -3.46875 6.84375 -3.625 C 6.789062 -3.78125 6.71875 -3.914062 6.625 -4.03125 C 6.53125 -4.15625 6.410156 -4.25 6.265625 -4.3125 C 6.128906 -4.382812 5.96875 -4.421875 5.78125 -4.421875 C 5.582031 -4.421875 5.410156 -4.375 5.265625 -4.28125 C 5.117188 -4.1875 5 -4.070312 4.90625 -3.9375 C 4.8125 -3.8125 4.742188 -3.675781 4.703125 -3.53125 C 4.660156 -3.394531 4.640625 -3.28125 4.640625 -3.1875 L 4.640625 -0.71875 C 4.640625 -0.664062 4.644531 -0.601562 4.65625 -0.53125 C 4.675781 -0.457031 4.703125 -0.390625 4.734375 -0.328125 C 4.765625 -0.273438 4.800781 -0.222656 4.84375 -0.171875 C 4.882812 -0.128906 4.9375 -0.109375 5 -0.109375 L 5 0 L 3.546875 0 L 3.546875 -0.109375 C 3.597656 -0.109375 3.644531 -0.128906 3.6875 -0.171875 C 3.738281 -0.222656 3.78125 -0.273438 3.8125 -0.328125 C 3.84375 -0.390625 3.863281 -0.457031 3.875 -0.53125 C 3.894531 -0.601562 3.90625 -0.664062 3.90625 -0.71875 L 3.90625 -3.203125 C 3.90625 -3.378906 3.875 -3.546875 3.8125 -3.703125 C 3.75 -3.859375 3.660156 -3.988281 3.546875 -4.09375 C 3.441406 -4.195312 3.320312 -4.273438 3.1875 -4.328125 C 3.050781 -4.390625 2.910156 -4.421875 2.765625 -4.421875 C 2.578125 -4.421875 2.410156 -4.382812 2.265625 -4.3125 C 2.117188 -4.238281 2 -4.144531 1.90625 -4.03125 C 1.8125 -3.914062 1.738281 -3.789062 1.6875 -3.65625 C 1.644531 -3.53125 1.625 -3.410156 1.625 -3.296875 L 1.625 -0.71875 C 1.625 -0.664062 1.628906 -0.601562 1.640625 -0.53125 C 1.660156 -0.457031 1.6875 -0.390625 1.71875 -0.328125 C 1.75 -0.273438 1.785156 -0.222656 1.828125 -0.171875 C 1.867188 -0.128906 1.921875 -0.109375 1.984375 -0.109375 L 1.984375 0 L 0.53125 0 L 0.53125 -0.109375 C 0.582031 -0.109375 0.628906 -0.128906 0.671875 -0.171875 C 0.722656 -0.222656 0.765625 -0.273438 0.796875 -0.328125 C 0.828125 -0.390625 0.847656 -0.457031 0.859375 -0.53125 C 0.878906 -0.601562 0.890625 -0.664062 0.890625 -0.71875 L 0.890625 -3.703125 C 0.890625 -3.765625 0.882812 -3.832031 0.875 -3.90625 C 0.875 -3.976562 0.859375 -4.046875 0.828125 -4.109375 C 0.804688 -4.179688 0.769531 -4.238281 0.71875 -4.28125 C 0.664062 -4.332031 0.597656 -4.359375 0.515625 -4.359375 L 0.515625 -4.453125 L 1.625 -4.828125 L 1.625 -4.25 C 1.726562 -4.382812 1.878906 -4.507812 2.078125 -4.625 C 2.273438 -4.738281 2.535156 -4.796875 2.859375 -4.796875 C 3.066406 -4.796875 3.253906 -4.765625 3.421875 -4.703125 C 3.585938 -4.648438 3.726562 -4.578125 3.84375 -4.484375 C 3.96875 -4.390625 4.070312 -4.28125 4.15625 -4.15625 C 4.25 -4.039062 4.328125 -3.929688 4.390625 -3.828125 C 4.453125 -3.929688 4.519531 -4.039062 4.59375 -4.15625 C 4.675781 -4.269531 4.773438 -4.375 4.890625 -4.46875 C 5.015625 -4.570312 5.15625 -4.648438 5.3125 -4.703125 C 5.46875 -4.765625 5.65625 -4.796875 5.875 -4.796875 C 6.289062 -4.796875 6.617188 -4.722656 6.859375 -4.578125 C 7.097656 -4.429688 7.273438 -4.253906 7.390625 -4.046875 C 7.503906 -3.835938 7.578125 -3.617188 7.609375 -3.390625 C 7.640625 -3.160156 7.65625 -2.96875 7.65625 -2.8125 Z M 7.65625 -0.71875 "/></g></g></g><g fill="#faf3f3" fill-opacity="1"><g transform="translate(58.042408, 23.198508)"><g><path d="M 0.65625 0 L 0.65625 -0.109375 C 0.71875 -0.109375 0.769531 -0.128906 0.8125 -0.171875 C 0.851562 -0.222656 0.890625 -0.273438 0.921875 -0.328125 C 0.953125 -0.390625 0.972656 -0.457031 0.984375 -0.53125 C 1.003906 -0.601562 1.015625 -0.664062 1.015625 -0.71875 L 1.015625 -3.828125 C 1.015625 -3.953125 0.992188 -4.070312 0.953125 -4.1875 C 0.921875 -4.300781 0.816406 -4.363281 0.640625 -4.375 L 0.640625 -4.46875 L 1.75 -4.828125 L 1.75 -0.71875 C 1.75 -0.664062 1.753906 -0.601562 1.765625 -0.53125 C 1.785156 -0.457031 1.8125 -0.390625 1.84375 -0.328125 C 1.875 -0.273438 1.910156 -0.222656 1.953125 -0.171875 C 1.992188 -0.128906 2.046875 -0.109375 2.109375 -0.109375 L 2.109375 0 Z M 0.71875 -5.90625 C 0.71875 -6.050781 0.765625 -6.175781 0.859375 -6.28125 C 0.960938 -6.382812 1.085938 -6.4375 1.234375 -6.4375 C 1.390625 -6.4375 1.519531 -6.382812 1.625 -6.28125 C 1.726562 -6.175781 1.78125 -6.050781 1.78125 -5.90625 C 1.78125 -5.75 1.726562 -5.625 1.625 -5.53125 C 1.519531 -5.4375 1.390625 -5.390625 1.234375 -5.390625 C 1.085938 -5.390625 0.960938 -5.4375 0.859375 -5.53125 C 0.765625 -5.625 0.71875 -5.75 0.71875 -5.90625 Z M 0.71875 -5.90625 "/></g></g></g><g fill="#faf3f3" fill-opacity="1"><g transform="translate(60.186888, 23.198508)"><g><path d="M 5 -0.71875 C 5 -0.664062 5.003906 -0.601562 5.015625 -0.53125 C 5.023438 -0.457031 5.046875 -0.390625 5.078125 -0.328125 C 5.117188 -0.273438 5.160156 -0.222656 5.203125 -0.171875 C 5.242188 -0.128906 5.289062 -0.109375 5.34375 -0.109375 L 5.34375 0 L 3.90625 0 L 3.90625 -0.109375 C 3.957031 -0.109375 4.003906 -0.128906 4.046875 -0.171875 C 4.097656 -0.222656 4.140625 -0.273438 4.171875 -0.328125 C 4.203125 -0.390625 4.222656 -0.457031 4.234375 -0.53125 C 4.253906 -0.601562 4.265625 -0.664062 4.265625 -0.71875 L 4.265625 -2.796875 C 4.265625 -3.066406 4.226562 -3.300781 4.15625 -3.5 C 4.082031 -3.707031 3.984375 -3.878906 3.859375 -4.015625 C 3.734375 -4.148438 3.585938 -4.25 3.421875 -4.3125 C 3.265625 -4.375 3.101562 -4.40625 2.9375 -4.40625 C 2.769531 -4.40625 2.609375 -4.367188 2.453125 -4.296875 C 2.296875 -4.234375 2.15625 -4.144531 2.03125 -4.03125 C 1.90625 -3.925781 1.800781 -3.800781 1.71875 -3.65625 C 1.644531 -3.507812 1.609375 -3.359375 1.609375 -3.203125 L 1.609375 -0.71875 C 1.609375 -0.664062 1.613281 -0.601562 1.625 -0.53125 C 1.644531 -0.457031 1.671875 -0.390625 1.703125 -0.328125 C 1.734375 -0.273438 1.769531 -0.222656 1.8125 -0.171875 C 1.851562 -0.128906 1.90625 -0.109375 1.96875 -0.109375 L 1.96875 0 L 0.515625 0 L 0.515625 -0.109375 C 0.566406 -0.109375 0.613281 -0.128906 0.65625 -0.171875 C 0.695312 -0.222656 0.734375 -0.273438 0.765625 -0.328125 C 0.804688 -0.390625 0.832031 -0.457031 0.84375 -0.53125 C 0.863281 -0.601562 0.875 -0.664062 0.875 -0.71875 L 0.875 -3.8125 C 0.875 -3.9375 0.851562 -4.054688 0.8125 -4.171875 C 0.78125 -4.285156 0.671875 -4.347656 0.484375 -4.359375 L 0.484375 -4.453125 L 1.609375 -4.8125 L 1.609375 -4.203125 C 1.660156 -4.265625 1.726562 -4.328125 1.8125 -4.390625 C 1.894531 -4.460938 1.992188 -4.53125 2.109375 -4.59375 C 2.222656 -4.65625 2.351562 -4.707031 2.5 -4.75 C 2.65625 -4.789062 2.835938 -4.8125 3.046875 -4.8125 C 3.398438 -4.8125 3.695312 -4.75 3.9375 -4.625 C 4.1875 -4.507812 4.390625 -4.359375 4.546875 -4.171875 C 4.703125 -3.984375 4.816406 -3.773438 4.890625 -3.546875 C 4.960938 -3.316406 5 -3.09375 5 -2.875 Z M 5 -0.71875 "/></g></g></g><g fill="#faf3f3" fill-opacity="1"><g transform="translate(65.470001, 23.198508)"><g><path d="M 2.84375 0.078125 C 2.476562 0.078125 2.144531 0.015625 1.84375 -0.109375 C 1.539062 -0.234375 1.285156 -0.398438 1.078125 -0.609375 C 0.867188 -0.816406 0.703125 -1.066406 0.578125 -1.359375 C 0.460938 -1.648438 0.40625 -1.96875 0.40625 -2.3125 C 0.40625 -2.675781 0.46875 -3.007812 0.59375 -3.3125 C 0.726562 -3.613281 0.90625 -3.867188 1.125 -4.078125 C 1.351562 -4.296875 1.617188 -4.460938 1.921875 -4.578125 C 2.222656 -4.703125 2.554688 -4.765625 2.921875 -4.765625 C 3.273438 -4.765625 3.597656 -4.707031 3.890625 -4.59375 C 4.191406 -4.476562 4.453125 -4.316406 4.671875 -4.109375 C 4.890625 -3.898438 5.054688 -3.648438 5.171875 -3.359375 C 5.285156 -3.078125 5.34375 -2.765625 5.34375 -2.421875 C 5.34375 -2.097656 5.289062 -1.785156 5.1875 -1.484375 C 5.082031 -1.179688 4.921875 -0.914062 4.703125 -0.6875 C 4.492188 -0.457031 4.234375 -0.269531 3.921875 -0.125 C 3.617188 0.0078125 3.257812 0.078125 2.84375 0.078125 Z M 2.78125 -4.40625 C 2.507812 -4.382812 2.269531 -4.316406 2.0625 -4.203125 C 1.863281 -4.085938 1.695312 -3.9375 1.5625 -3.75 C 1.425781 -3.570312 1.320312 -3.367188 1.25 -3.140625 C 1.175781 -2.910156 1.140625 -2.675781 1.140625 -2.4375 C 1.140625 -2.15625 1.179688 -1.882812 1.265625 -1.625 C 1.347656 -1.375 1.46875 -1.144531 1.625 -0.9375 C 1.789062 -0.738281 1.984375 -0.582031 2.203125 -0.46875 C 2.429688 -0.351562 2.679688 -0.296875 2.953125 -0.296875 C 3.234375 -0.296875 3.476562 -0.351562 3.6875 -0.46875 C 3.90625 -0.582031 4.082031 -0.734375 4.21875 -0.921875 C 4.363281 -1.117188 4.46875 -1.335938 4.53125 -1.578125 C 4.601562 -1.816406 4.640625 -2.054688 4.640625 -2.296875 C 4.640625 -2.535156 4.601562 -2.78125 4.53125 -3.03125 C 4.457031 -3.28125 4.34375 -3.503906 4.1875 -3.703125 C 4.03125 -3.910156 3.832031 -4.078125 3.59375 -4.203125 C 3.363281 -4.335938 3.09375 -4.40625 2.78125 -4.40625 Z M 2.78125 -4.40625 "/></g></g></g><g fill="#faf3f3" fill-opacity="1"><g transform="translate(70.652588, 23.198508)"><g><path d="M 4.921875 -0.71875 C 4.921875 -0.664062 4.925781 -0.601562 4.9375 -0.53125 C 4.957031 -0.46875 4.976562 -0.40625 5 -0.34375 C 5.03125 -0.28125 5.066406 -0.222656 5.109375 -0.171875 C 5.160156 -0.128906 5.210938 -0.109375 5.265625 -0.109375 L 5.265625 0 L 4.1875 0 L 4.1875 -0.609375 C 4.070312 -0.453125 3.90625 -0.296875 3.6875 -0.140625 C 3.476562 0.015625 3.203125 0.09375 2.859375 0.09375 C 2.429688 0.09375 2.085938 0.0195312 1.828125 -0.125 C 1.578125 -0.269531 1.382812 -0.457031 1.25 -0.6875 C 1.113281 -0.914062 1.023438 -1.164062 0.984375 -1.4375 C 0.953125 -1.71875 0.9375 -1.976562 0.9375 -2.21875 L 0.9375 -3.8125 C 0.9375 -3.875 0.929688 -3.9375 0.921875 -4 C 0.921875 -4.0625 0.90625 -4.117188 0.875 -4.171875 C 0.851562 -4.222656 0.816406 -4.265625 0.765625 -4.296875 C 0.710938 -4.335938 0.640625 -4.359375 0.546875 -4.359375 L 0.546875 -4.453125 L 1.671875 -4.8125 L 1.671875 -1.96875 C 1.671875 -1.394531 1.789062 -0.972656 2.03125 -0.703125 C 2.28125 -0.441406 2.585938 -0.3125 2.953125 -0.3125 C 3.140625 -0.3125 3.3125 -0.351562 3.46875 -0.4375 C 3.625 -0.519531 3.753906 -0.617188 3.859375 -0.734375 C 3.960938 -0.859375 4.039062 -0.984375 4.09375 -1.109375 C 4.15625 -1.242188 4.1875 -1.351562 4.1875 -1.4375 L 4.1875 -3.8125 C 4.1875 -3.875 4.179688 -3.9375 4.171875 -4 C 4.171875 -4.0625 4.15625 -4.117188 4.125 -4.171875 C 4.101562 -4.222656 4.066406 -4.265625 4.015625 -4.296875 C 3.960938 -4.335938 3.890625 -4.359375 3.796875 -4.359375 L 3.796875 -4.453125 L 4.921875 -4.8125 Z M 4.921875 -0.71875 "/></g></g></g><g fill="#faf3f3" fill-opacity="1"><g transform="translate(75.846343, 23.198508)"><g><path d="M 4.140625 -1.28125 C 4.140625 -1.082031 4.085938 -0.898438 3.984375 -0.734375 C 3.890625 -0.566406 3.757812 -0.421875 3.59375 -0.296875 C 3.425781 -0.179688 3.226562 -0.0859375 3 -0.015625 C 2.78125 0.0546875 2.539062 0.09375 2.28125 0.09375 C 1.957031 0.09375 1.695312 0.0507812 1.5 -0.03125 C 1.300781 -0.125 1.128906 -0.210938 0.984375 -0.296875 C 0.890625 -0.359375 0.800781 -0.410156 0.71875 -0.453125 C 0.632812 -0.492188 0.546875 -0.515625 0.453125 -0.515625 L 0.453125 -1.359375 L 0.5625 -1.359375 C 0.582031 -1.253906 0.644531 -1.140625 0.75 -1.015625 C 0.863281 -0.898438 0.992188 -0.789062 1.140625 -0.6875 C 1.296875 -0.582031 1.460938 -0.492188 1.640625 -0.421875 C 1.828125 -0.347656 2.015625 -0.3125 2.203125 -0.3125 C 2.335938 -0.3125 2.472656 -0.328125 2.609375 -0.359375 C 2.753906 -0.390625 2.882812 -0.4375 3 -0.5 C 3.113281 -0.570312 3.207031 -0.65625 3.28125 -0.75 C 3.363281 -0.851562 3.40625 -0.972656 3.40625 -1.109375 C 3.40625 -1.253906 3.363281 -1.378906 3.28125 -1.484375 C 3.195312 -1.585938 3.09375 -1.675781 2.96875 -1.75 C 2.84375 -1.832031 2.695312 -1.90625 2.53125 -1.96875 C 2.375 -2.03125 2.210938 -2.085938 2.046875 -2.140625 C 1.847656 -2.191406 1.648438 -2.253906 1.453125 -2.328125 C 1.253906 -2.410156 1.078125 -2.5 0.921875 -2.59375 C 0.765625 -2.695312 0.640625 -2.820312 0.546875 -2.96875 C 0.453125 -3.113281 0.40625 -3.285156 0.40625 -3.484375 C 0.40625 -3.660156 0.4375 -3.828125 0.5 -3.984375 C 0.5625 -4.140625 0.664062 -4.273438 0.8125 -4.390625 C 0.957031 -4.503906 1.144531 -4.59375 1.375 -4.65625 C 1.601562 -4.726562 1.882812 -4.765625 2.21875 -4.765625 C 2.5 -4.765625 2.71875 -4.738281 2.875 -4.6875 C 3.039062 -4.644531 3.175781 -4.597656 3.28125 -4.546875 C 3.351562 -4.503906 3.421875 -4.472656 3.484375 -4.453125 C 3.554688 -4.441406 3.628906 -4.4375 3.703125 -4.4375 L 3.703125 -3.65625 L 3.625 -3.65625 C 3.488281 -3.894531 3.28125 -4.078125 3 -4.203125 C 2.726562 -4.335938 2.445312 -4.40625 2.15625 -4.40625 C 1.96875 -4.40625 1.804688 -4.378906 1.671875 -4.328125 C 1.535156 -4.273438 1.425781 -4.210938 1.34375 -4.140625 C 1.257812 -4.078125 1.195312 -4 1.15625 -3.90625 C 1.113281 -3.820312 1.09375 -3.734375 1.09375 -3.640625 C 1.09375 -3.515625 1.128906 -3.40625 1.203125 -3.3125 C 1.273438 -3.226562 1.367188 -3.148438 1.484375 -3.078125 C 1.609375 -3.015625 1.75 -2.953125 1.90625 -2.890625 C 2.0625 -2.828125 2.222656 -2.769531 2.390625 -2.71875 C 2.597656 -2.65625 2.804688 -2.582031 3.015625 -2.5 C 3.222656 -2.425781 3.410156 -2.332031 3.578125 -2.21875 C 3.742188 -2.113281 3.878906 -1.984375 3.984375 -1.828125 C 4.085938 -1.671875 4.140625 -1.488281 4.140625 -1.28125 Z M 4.140625 -1.28125 "/></g></g></g><g fill="#faf3f3" fill-opacity="1"><g transform="translate(34.302891, 23.166541)"><g><path d="M 2.71875 -0.640625 C 1.71875 -0.203125 0.617188 0.015625 -0.578125 0.015625 C -1.585938 0.015625 -2.238281 -0.144531 -2.53125 -0.46875 C -2.613281 -0.570312 -2.65625 -0.679688 -2.65625 -0.796875 C -2.65625 -0.921875 -2.601562 -1.039062 -2.5 -1.15625 C -2.40625 -1.28125 -2.265625 -1.382812 -2.078125 -1.46875 C -1.691406 -1.644531 -1.132812 -1.734375 -0.40625 -1.734375 C 0.320312 -1.734375 1.316406 -1.507812 2.578125 -1.0625 C 3.472656 -1.65625 4.578125 -2.84375 5.890625 -4.625 C 4.585938 -4.65625 3.53125 -4.9375 2.71875 -5.46875 C 1.914062 -6 1.515625 -6.679688 1.515625 -7.515625 C 1.515625 -8.335938 1.894531 -9.101562 2.65625 -9.8125 C 3.4375 -10.53125 4.300781 -10.890625 5.25 -10.890625 C 5.394531 -10.890625 5.46875 -10.847656 5.46875 -10.765625 C 5.46875 -10.710938 5.289062 -10.664062 4.9375 -10.625 C 4.59375 -10.59375 4.238281 -10.484375 3.875 -10.296875 C 3.507812 -10.109375 3.207031 -9.875 2.96875 -9.59375 C 2.476562 -9.050781 2.234375 -8.484375 2.234375 -7.890625 C 2.234375 -7.296875 2.320312 -6.820312 2.5 -6.46875 C 2.6875 -6.113281 2.945312 -5.820312 3.28125 -5.59375 C 3.9375 -5.144531 4.867188 -4.910156 6.078125 -4.890625 L 7.375 -6.765625 C 8.945312 -9.109375 10.394531 -10.796875 11.71875 -11.828125 C 13 -12.816406 14.332031 -13.3125 15.71875 -13.3125 C 16.445312 -13.3125 16.929688 -13.085938 17.171875 -12.640625 C 17.253906 -12.492188 17.296875 -12.296875 17.296875 -12.046875 C 17.296875 -11.796875 17.207031 -11.484375 17.03125 -11.109375 C 16.863281 -10.734375 16.628906 -10.351562 16.328125 -9.96875 C 16.035156 -9.582031 15.679688 -9.195312 15.265625 -8.8125 C 14.859375 -8.425781 14.410156 -8.050781 13.921875 -7.6875 C 13.429688 -7.332031 12.910156 -6.988281 12.359375 -6.65625 C 11.816406 -6.332031 11.257812 -6.039062 10.6875 -5.78125 C 9.488281 -5.226562 8.363281 -4.875 7.3125 -4.71875 C 5.914062 -2.851562 4.53125 -1.5625 3.15625 -0.84375 C 4.3125 -0.4375 5.691406 -0.234375 7.296875 -0.234375 C 8.710938 -0.234375 9.75 -0.554688 10.40625 -1.203125 C 10.5 -1.296875 10.554688 -1.316406 10.578125 -1.265625 C 10.617188 -1.160156 10.570312 -1.039062 10.4375 -0.90625 C 9.570312 -0.144531 8.554688 0.234375 7.390625 0.234375 C 6.222656 0.234375 4.664062 -0.0546875 2.71875 -0.640625 Z M 7.53125 -5.015625 C 8.863281 -5.242188 10.273438 -5.789062 11.765625 -6.65625 C 13.140625 -7.4375 14.289062 -8.347656 15.21875 -9.390625 C 16.175781 -10.453125 16.65625 -11.394531 16.65625 -12.21875 C 16.65625 -12.59375 16.453125 -12.863281 16.046875 -13.03125 C 15.921875 -13.070312 15.789062 -13.09375 15.65625 -13.09375 C 13.644531 -13.09375 11.675781 -11.515625 9.75 -8.359375 L 8.609375 -6.578125 C 8.253906 -6.015625 7.894531 -5.492188 7.53125 -5.015625 Z M -0.453125 -1.25 C -1.742188 -1.25 -2.390625 -1.085938 -2.390625 -0.765625 C -2.390625 -0.554688 -2.066406 -0.390625 -1.421875 -0.265625 C -1.210938 -0.222656 -0.90625 -0.203125 -0.5 -0.203125 C 0.53125 -0.203125 1.410156 -0.40625 2.140625 -0.8125 C 1.046875 -1.101562 0.179688 -1.25 -0.453125 -1.25 Z M -0.453125 -1.25 "/></g></g></g></svg>